<svg xmlns="http://www.w3.org/2000/svg" viewBox="0 0 1200 700"><rect width="1200" height="700" fill="#0f172a"/><g fill="none" stroke="#93c5fd" stroke-width="5" opacity=".75"><path d="M300 360c-72 0-128-45-128-108 0-57 47-104 111-108 31-68 107-111 190-91 54 13 97 48 119 93 70 3 126 50 126 107 0 62-57 107-129 107H300z"/><path d="M600 360v110M480 470h240M360 470h120M720 470h120M360 470v85M600 470v85M840 470v85"/></g><g fill="#60a5fa" opacity=".86"><rect x="310" y="545" width="100" height="52" rx="10"/><rect x="550" y="545" width="100" height="52" rx="10"/><rect x="790" y="545" width="100" height="52" rx="10"/></g><g fill="#bfdbfe" opacity=".35"><circle cx="930" cy="150" r="65"/><circle cx="1010" cy="250" r="28"/><circle cx="210" cy="520" r="36"/></g></svg>
