<svg xmlns="http://www.w3.org/2000/svg" viewBox="0 0 1200 700"><defs><linearGradient id="g" x1="0" x2="1"><stop stop-color="#0f172a"/><stop offset="1" stop-color="#334155"/></linearGradient></defs><rect width="1200" height="700" fill="url(#g)"/><g opacity=".8" fill="none" stroke="#93c5fd" stroke-width="6"><rect x="180" y="90" width="290" height="520" rx="18"/><rect x="730" y="90" width="290" height="520" rx="18"/></g><g stroke="#60a5fa" stroke-width="4" opacity=".72"><path d="M230 180h190M230 240h190M230 300h190M230 360h190M230 420h190M780 180h190M780 240h190M780 300h190M780 360h190M780 420h190"/><path d="M420 205C560 205 620 310 775 310M420 330C560 330 625 230 780 230M420 455C575 455 650 390 780 390"/></g><g fill="#bfdbfe" opacity=".9"><circle cx="260" cy="180" r="7"/><circle cx="310" cy="240" r="7"/><circle cx="365" cy="300" r="7"/><circle cx="800" cy="310" r="7"/><circle cx="890" cy="230" r="7"/><circle cx="970" cy="390" r="7"/></g></svg>
